<?xml version="1.0" encoding="utf-8"?>
<!-- Generator: Adobe Illustrator 21.0.0, SVG Export Plug-In . SVG Version: 6.00 Build 0)  -->
<svg version="1.1" id="Capa_1" xmlns="http://www.w3.org/2000/svg" xmlns:xlink="http://www.w3.org/1999/xlink" x="0px" y="0px"
	 viewBox="0 0 26 25" style="enable-background:new 0 0 26 25;" xml:space="preserve">
<style type="text/css">
	.st0{fill:#FFFFFF;}
	.st1{filter:url(#Adobe_OpacityMaskFilter);}
	.st2{mask:url(#b);fill:#FFFFFF;}
</style>
<g>
	<path class="st0" d="M11.5,23.6c-0.6,0-1.1-0.5-1.1-1.2c0-0.6,0.5-1,1.1-1.1c0.6,0,1.1,0.5,1.1,1.1S12.1,23.6,11.5,23.6 M11.5,20
		C10.1,20,9,21.1,9,22.5c0,1.4,1.1,2.5,2.5,2.5s2.5-1.1,2.5-2.5S12.9,20,11.5,20 M19,23.6c-0.5,0-0.9-0.5-0.9-1.1s0.4-1.1,0.9-1.1
		s0.9,0.5,0.9,1.1S19.5,23.6,19,23.6 M19,20c-1.1,0-2,1.1-2,2.5s0.9,2.5,2,2.5s2-1.1,2-2.5S20.1,20,19,20 M10.6,9h8.8
		C19.7,9,20,8.8,20,8.5S19.7,8,19.4,8h-8.8C10.3,8,10,8.2,10,8.5S10.3,9,10.6,9 M19.3,11h-8.6c-0.4,0-0.7,0.2-0.7,0.5
		s0.3,0.5,0.7,0.5h8.6c0.4,0,0.7-0.2,0.7-0.5S19.7,11,19.3,11"/>
	<defs>
		<filter id="Adobe_OpacityMaskFilter" filterUnits="userSpaceOnUse" x="0" y="0" width="26" height="19">
			<feColorMatrix  type="matrix" values="1 0 0 0 0  0 1 0 0 0  0 0 1 0 0  0 0 0 1 0"/>
		</filter>
	</defs>
	<mask maskUnits="userSpaceOnUse" x="0" y="0" width="26" height="19" id="b">
		<g class="st1">
			<path id="a" class="st0" d="M0,0h26v19H0V0z"/>
		</g>
	</mask>
	<path class="st2" d="M22.9,14.5h-16L5.1,5.6h19.6L22.9,14.5z M25.7,4.7c-0.2-0.3-0.6-0.5-1-0.5H4.8l-0.4-2C4.4,1.8,4.1,1.5,3.7,1.3
		L0.9,0.1c-0.3-0.1-0.7,0-0.8,0.3c0,0,0,0,0,0c-0.1,0.3,0,0.7,0.3,0.9l2.8,1.3l3.1,15.4c0.1,0.6,0.6,1,1.2,1h15.3
		c0.4,0,0.6-0.3,0.6-0.7c0,0,0,0,0,0c0-0.4-0.3-0.7-0.6-0.7H7.5l-0.4-1.9h15.8c0.6,0,1.1-0.4,1.2-1L26,5.8C26,5.4,26,5,25.7,4.7
		L25.7,4.7z"/>
</g>
</svg>
