<svg xmlns="http://www.w3.org/2000/svg" xmlns:xlink="http://www.w3.org/1999/xlink" width="26" height="25" viewBox="0 0 26 25">
    <defs>
        <path id="a" d="M0 0h25.995v18.993H0z"/>
    </defs>
    <g fill="none" fill-rule="evenodd">
        <path fill="#F40000" d="M11.5 23.604a1.105 1.105 0 0 1 0-2.208c.609 0 1.104.495 1.104 1.104 0 .609-.495 1.104-1.104 1.104m0-3.604A2.503 2.503 0 0 0 9 22.5c0 1.379 1.121 2.5 2.5 2.5s2.5-1.121 2.5-2.5-1.122-2.5-2.5-2.5M19 23.604c-.487 0-.883-.495-.883-1.104 0-.609.396-1.104.883-1.104s.883.495.883 1.104c0 .609-.396 1.104-.883 1.104M19 20c-1.103 0-2 1.121-2 2.5s.897 2.5 2 2.5 2-1.121 2-2.5-.897-2.5-2-2.5M10.612 9h8.776c.338 0 .612-.224.612-.5s-.274-.5-.612-.5h-8.776c-.338 0-.612.224-.612.5s.274.5.612.5M19.323 11h-8.646c-.374 0-.677.224-.677.5s.303.5.677.5h8.646c.374 0 .677-.224.677-.5s-.303-.5-.677-.5"/>
        <mask id="b" fill="#fff">
            <use xlink:href="#a"/>
        </mask>
        <path fill="#F40000" d="M22.933 14.488H6.886L5.1 5.568h19.618l-1.785 8.92zm2.774-9.751a1.258 1.258 0 0 0-.99-.484H4.838l-.401-2.006a1.308 1.308 0 0 0-.742-.94L.893.054a.631.631 0 0 0-.84.34c-.14.334.008.72.331.865l2.802 1.252 3.088 15.432a1.29 1.29 0 0 0 1.25 1.05h15.29a.648.648 0 0 0 .639-.658.648.648 0 0 0-.638-.657H7.525l-.377-1.877h15.785a1.29 1.29 0 0 0 1.25-1.049l1.785-8.92a1.338 1.338 0 0 0-.26-1.096z" mask="url(#b)"/>
    </g>
</svg>
