<svg xmlns="http://www.w3.org/2000/svg" xmlns:xlink="http://www.w3.org/1999/xlink" width="24" height="28" viewBox="0 0 24 28">
    <defs>
        <path id="a" d="M0 0h23.1v28H0z"/>
    </defs>
    <g fill="none" fill-rule="evenodd">
        <mask id="b" fill="#fff">
            <use xlink:href="#a"/>
        </mask>
        <path fill="#F40000" d="M21.63 13.685c-.03.562-.36 1.014-.793 1.06-.19.02-.38.01-.57.01H3.893c-.105 0-.21.006-.314-.009-.442-.063-.769-.543-.77-1.124-.003-.58.32-1.064.762-1.135.065-.01.132-.01.199-.01 5.629 0 11.257 0 16.886.002.095 0 .192-.001.284.024.421.114.716.626.688 1.182zM10.261 17.35a.983.983 0 0 1 .985-.994h.01c.541.005.997.467.994 1.008-.003.54-.459.997-.995.997h-.009a1.001 1.001 0 0 1-.985-1.01zm9.475.864l-.967 6.723c-.043.296-.078.593-.126.887a.896.896 0 0 1-.91.78c-3.65.002-7.3.002-10.951-.001-.45 0-.826-.305-.888-.732-.272-1.859-.532-3.72-.796-5.58-.001-.008.006-.017.027-.07a19.398 19.398 0 0 0 4.655-1.48c.365.395.882.645 1.458.65h.017c.53 0 1.033-.212 1.417-.596a2.022 2.022 0 0 0 .233-2.599h1.876l-.005-.042h5.252c-.098.692-.194 1.376-.292 2.06zM4.639 16.15H9.63c-.25.343-.388.757-.39 1.194v.022c-1.34.64-2.721 1.153-4.235 1.427-.113-.773-.254-1.875-.366-2.643zM1.67 18.57c-.141-.083-.193-.513-.103-.652.186-.287.46-.605.687-.858.232-.259.578-.444.872-.708.032.106.043.131.047.158.096.683.191 1.661.292 2.381-.58.004-1.289-.023-1.795-.321zm9.805-9.912l5.556 1.352-.256 1.068-5.88.001.58-2.42zm.907-1.942l.008-.005 1.598-1.813a4.98 4.98 0 0 0 .992-1.666l1.396.34c-.083.634-.04 1.31.124 1.932l.6 2.353.004.009c.092.307.135.605.13.918l-5.384-1.31c.138-.281.31-.527.532-.758zm2.61-5.417c.81.112 1.579.296 2.247.538l-.153.637-2.245-.546.151-.63zm7.828 11.159c-.496-.927-1.287-1.374-2.32-1.381h-2.449l.272-1.135v-.003c.204-.89.19-1.665-.042-2.44l-.59-2.309-.001-.003a3.803 3.803 0 0 1-.108-1.35.624.624 0 0 0 .557-.474l.423-1.761a.618.618 0 0 0-.354-.716C17.163.435 15.876.121 14.583.003a.612.612 0 0 0-.655.47l-.422 1.763a.62.62 0 0 0 .28.676 3.85 3.85 0 0 1-.713 1.158l-1.568 1.784c-.561.58-.922 1.264-1.135 2.153l-.737 3.073-5.755.001c-1.749.026-2.923 1.627-2.414 3.288.089.29.258.555.399.851-.124.108-.281.214-.4.353-.382.444-.808.864-1.111 1.359-.725 1.183-.295 2.438.963 2.985.69.3 1.416.37 2.154.37.161.001.248.023.274.217.232 1.706.482 3.41.713 5.117.201 1.48 1.205 2.376 2.69 2.378h4.828c1.786 0 3.571.002 5.357 0 1.365-.003 2.35-.789 2.602-2.143.187-1.002.298-2.018.44-3.028.307-2.169.615-4.337.913-6.507.03-.22.114-.33.323-.417 1.303-.547 1.879-2.2 1.211-3.446z" mask="url(#b)"/>
    </g>
</svg>
