<?xml version="1.0" encoding="utf-8"?>
<!-- Generator: Adobe Illustrator 21.0.0, SVG Export Plug-In . SVG Version: 6.00 Build 0)  -->
<svg version="1.1" id="Capa_1" xmlns="http://www.w3.org/2000/svg" xmlns:xlink="http://www.w3.org/1999/xlink" x="0px" y="0px"
	 viewBox="0 0 24 28" style="enable-background:new 0 0 24 28;" xml:space="preserve">
<style type="text/css">
	.st0{filter:url(#Adobe_OpacityMaskFilter);}
	.st1{fill:#FFFFFF;}
	.st2{mask:url(#b);fill:#FFFFFF;}
</style>
<g>
	<defs>
		<filter id="Adobe_OpacityMaskFilter" filterUnits="userSpaceOnUse" x="0" y="0" width="23.1" height="28">
			<feColorMatrix  type="matrix" values="1 0 0 0 0  0 1 0 0 0  0 0 1 0 0  0 0 0 1 0"/>
		</filter>
	</defs>
	<mask maskUnits="userSpaceOnUse" x="0" y="0" width="23.1" height="28" id="b">
		<g class="st0">
			<path id="a" class="st1" d="M0,0h23.1v28H0V0z"/>
		</g>
	</mask>
	<path class="st2" d="M21.6,13.7c0,0.6-0.4,1-0.8,1.1c-0.2,0-0.4,0-0.6,0H3.9c-0.1,0-0.2,0-0.3,0c-0.4-0.1-0.8-0.5-0.8-1.1
		c0-0.6,0.3-1.1,0.8-1.1c0.1,0,0.1,0,0.2,0c5.6,0,11.3,0,16.9,0c0.1,0,0.2,0,0.3,0C21.4,12.6,21.7,13.1,21.6,13.7L21.6,13.7z
		 M10.3,17.3c0-0.5,0.4-1,1-1c0,0,0,0,0,0h0c0.5,0,1,0.5,1,1c0,0.5-0.5,1-1,1h0C10.7,18.4,10.3,17.9,10.3,17.3L10.3,17.3z
		 M19.7,18.2l-1,6.7c0,0.3-0.1,0.6-0.1,0.9c-0.1,0.5-0.5,0.8-0.9,0.8c-3.6,0-7.3,0-11,0c-0.4,0-0.8-0.3-0.9-0.7
		c-0.3-1.9-0.5-3.7-0.8-5.6c0,0,0,0,0-0.1c1.6-0.3,3.2-0.8,4.7-1.5c0.4,0.4,0.9,0.6,1.5,0.6h0c0.5,0,1-0.2,1.4-0.6
		c0.7-0.7,0.8-1.8,0.2-2.6h1.9l0,0H20C19.9,16.8,19.8,17.5,19.7,18.2z M4.6,16.1h5c-0.2,0.3-0.4,0.8-0.4,1.2v0
		C7.9,18,6.5,18.5,5,18.8C4.9,18,4.8,16.9,4.6,16.1z M1.7,18.6c-0.1-0.1-0.2-0.5-0.1-0.7c0.2-0.3,0.5-0.6,0.7-0.9
		c0.2-0.3,0.6-0.4,0.9-0.7c0,0.1,0,0.1,0,0.2c0.1,0.7,0.2,1.7,0.3,2.4C2.9,18.9,2.2,18.9,1.7,18.6z M11.5,8.7L17,10l-0.3,1.1l-5.9,0
		L11.5,8.7L11.5,8.7z M12.4,6.7L12.4,6.7L14,4.9c0.4-0.5,0.8-1.1,1-1.7l1.4,0.3c-0.1,0.6,0,1.3,0.1,1.9l0.6,2.4l0,0
		c0.1,0.3,0.1,0.6,0.1,0.9l-5.4-1.3C12,7.2,12.2,6.9,12.4,6.7z M15,1.3c0.8,0.1,1.6,0.3,2.2,0.5l-0.2,0.6l-2.2-0.5L15,1.3L15,1.3z
		 M22.8,12.5c-0.5-0.9-1.3-1.4-2.3-1.4h-2.4l0.3-1.1v0c0.2-0.9,0.2-1.7,0-2.4l-0.6-2.3l0,0c-0.1-0.4-0.2-0.9-0.1-1.3
		c0.3,0,0.5-0.2,0.6-0.5l0.4-1.8c0.1-0.3-0.1-0.6-0.4-0.7c-1-0.5-2.3-0.8-3.6-0.9c-0.3,0-0.6,0.2-0.7,0.5l-0.4,1.8
		c-0.1,0.3,0,0.5,0.3,0.7c-0.2,0.4-0.4,0.8-0.7,1.2l-1.6,1.8c-0.6,0.6-0.9,1.3-1.1,2.2l-0.7,3.1l-5.8,0c-1.7,0-2.9,1.6-2.4,3.3
		c0.1,0.3,0.3,0.6,0.4,0.9c-0.1,0.1-0.3,0.2-0.4,0.4c-0.4,0.4-0.8,0.9-1.1,1.4c-0.7,1.2-0.3,2.4,1,3c0.7,0.3,1.4,0.4,2.2,0.4
		c0.2,0,0.2,0,0.3,0.2c0.2,1.7,0.5,3.4,0.7,5.1C4.7,27.1,5.7,28,7.1,28H12c1.8,0,3.6,0,5.4,0c1.4,0,2.4-0.8,2.6-2.1
		c0.2-1,0.3-2,0.4-3c0.3-2.2,0.6-4.3,0.9-6.5c0-0.2,0.1-0.3,0.3-0.4C22.9,15.4,23.5,13.7,22.8,12.5z"/>
</g>
</svg>
