<svg xmlns="http://www.w3.org/2000/svg" xmlns:xlink="http://www.w3.org/1999/xlink" width="24" height="24" viewBox="0 0 24 24">
    <defs>
        <path id="a" d="M0 .02h23.18v23.892H0z"/>
    </defs>
    <g fill="none" fill-rule="evenodd">
        <mask id="b" fill="#fff">
            <use xlink:href="#a"/>
        </mask>
        <path fill="#F40000" d="M21.821 7.463v9.745l-9.563 4.908v-9.723l5.089-2.627 4.474-2.303zm-.802-1.124L17.05 8.394 7.622 3.52l3.968-2.055 5.142 2.666 4.287 2.207zm-5.46 2.816L11.59 11.21 6.448 8.544 2.162 6.337l3.967-2.055 9.43 4.873zm-9.726.61l5.09 2.628v9.745l-9.564-4.953V7.463l4.474 2.303zM23.111 6.07a.544.544 0 0 0-.092-.15.543.543 0 0 0-.28-.203l-5.368-2.805L11.909.094l-.003-.002a.68.68 0 0 0-.608 0l-5.49 2.82L.413 5.718a.625.625 0 0 0-.339.345.763.763 0 0 0-.037.098L0 6.234v11.372c0 .239.135.468.353.6l.01.005 10.878 5.6a.414.414 0 0 0 .223.076.473.473 0 0 0 .15.025c.07 0 .14-.004.23-.042a.363.363 0 0 0 .154-.1l10.81-5.553.02-.011a.712.712 0 0 0 .352-.6V6.338c0-.057 0-.164-.069-.27z" mask="url(#b)"/>
        <path fill="#E41E2A" d="M15.015 13.485l.035.078c.086.193.223.33.387.387.07.033.147.05.228.05.101 0 .209-.026.33-.08l.01-.005 2.531-1.365.005-.002a.944.944 0 0 0 .376-.422.824.824 0 0 0 .03-.648c-.1-.27-.263-.383-.394-.428a.531.531 0 0 0-.228-.05.806.806 0 0 0-.329.08l-.01.005-2.532 1.365-.005.002a.944.944 0 0 0-.376.422.948.948 0 0 0-.058.538v.073z"/>
    </g>
</svg>
