<?xml version="1.0" encoding="utf-8"?>
<!-- Generator: Adobe Illustrator 21.0.0, SVG Export Plug-In . SVG Version: 6.00 Build 0)  -->
<svg version="1.1" id="Capa_1" xmlns="http://www.w3.org/2000/svg" xmlns:xlink="http://www.w3.org/1999/xlink" x="0px" y="0px"
	 viewBox="0 0 24 24" style="enable-background:new 0 0 24 24;" xml:space="preserve">
<style type="text/css">
	.st0{filter:url(#Adobe_OpacityMaskFilter);}
	.st1{fill:#FFFFFF;}
	.st2{mask:url(#b);fill:#FFFFFF;}
</style>
<g>
	<defs>
		<filter id="Adobe_OpacityMaskFilter" filterUnits="userSpaceOnUse" x="0" y="0" width="23.2" height="23.9">
			<feColorMatrix  type="matrix" values="1 0 0 0 0  0 1 0 0 0  0 0 1 0 0  0 0 0 1 0"/>
		</filter>
	</defs>
	<mask maskUnits="userSpaceOnUse" x="0" y="0" width="23.2" height="23.9" id="b">
		<g class="st0">
			<path id="a" class="st1" d="M0,0h23.2v23.9H0V0z"/>
		</g>
	</mask>
	<path class="st2" d="M21.8,7.5v9.7l-9.6,4.9v-9.7l5.1-2.6C17.3,9.8,21.8,7.5,21.8,7.5z M21,6.3l-4,2.1L7.6,3.5l4-2.1l5.1,2.7
		L21,6.3L21,6.3z M15.6,9.2l-4,2.1L6.4,8.5L2.2,6.3l4-2.1C6.1,4.3,15.6,9.2,15.6,9.2z M5.8,9.8l5.1,2.6v9.7l-9.6-5V7.5L5.8,9.8
		L5.8,9.8z M23.1,6.1C23.1,6,23.1,6,23,5.9c-0.1-0.1-0.2-0.2-0.3-0.2l-5.4-2.8l-5.5-2.8l0,0c-0.2-0.1-0.4-0.1-0.6,0L5.8,2.9L0.4,5.7
		C0.3,5.8,0.1,5.9,0.1,6.1c0,0,0,0.1,0,0.1l0,0.1v11.4c0,0.2,0.1,0.5,0.4,0.6l0,0l10.9,5.6c0.1,0,0.1,0.1,0.2,0.1c0,0,0.1,0,0.1,0
		c0.1,0,0.1,0,0.2,0c0.1,0,0.1-0.1,0.2-0.1l10.8-5.6l0,0c0.2-0.1,0.3-0.4,0.4-0.6V6.3C23.2,6.3,23.2,6.2,23.1,6.1L23.1,6.1z"/>
	<path class="st1" d="M15,13.5L15,13.5c0.1,0.3,0.3,0.4,0.4,0.5c0.1,0,0.1,0.1,0.2,0.1c0.1,0,0.2,0,0.3-0.1l0,0l2.5-1.4l0,0
		c0.2-0.1,0.3-0.2,0.4-0.4c0.1-0.2,0.1-0.4,0-0.6c-0.1-0.3-0.3-0.4-0.4-0.4c-0.1,0-0.1-0.1-0.2-0.1c-0.1,0-0.2,0-0.3,0.1l0,0
		l-2.5,1.4l0,0c-0.2,0.1-0.3,0.2-0.4,0.4C15,13,15,13.2,15,13.5C15,13.4,15,13.5,15,13.5z"/>
</g>
</svg>
