<?xml version="1.0" encoding="utf-8"?>
<!-- Generator: Adobe Illustrator 21.0.0, SVG Export Plug-In . SVG Version: 6.00 Build 0)  -->
<svg version="1.1" id="Capa_1" xmlns="http://www.w3.org/2000/svg" xmlns:xlink="http://www.w3.org/1999/xlink" x="0px" y="0px"
	 viewBox="0 0 21 20" style="enable-background:new 0 0 21 20;" xml:space="preserve">
<style type="text/css">
	.st0{filter:url(#Adobe_OpacityMaskFilter);}
	.st1{fill:#FFFFFF;}
	.st2{mask:url(#b);fill:#FFFFFF;}
</style>
<g>
	<g transform="matrix(-1 0 0 1 16.185 0)">
		<defs>
			<filter id="Adobe_OpacityMaskFilter" filterUnits="userSpaceOnUse">
				<feColorMatrix  type="matrix" values="1 0 0 0 0  0 1 0 0 0  0 0 1 0 0  0 0 0 1 0"/>
			</filter>
		</defs>
		<mask maskUnits="userSpaceOnUse" id="b">
			<g class="st0">
				<path id="a" class="st1" d="M0,0h11.2v11.2H0V0z"/>
			</g>
		</mask>
		<path class="st2" d="M5.6,1.5c2.3,0,4.1,1.9,4.1,4.1c0,2.3-1.9,4.1-4.1,4.1c-2.3,0-4.1-1.9-4.1-4.1C1.5,3.3,3.4,1.5,5.6,1.5
			 M5.6,11.2c3.1,0,5.6-2.5,5.6-5.6C11.3,2.5,8.7,0,5.6,0C2.5,0,0,2.5,0,5.6C0,8.7,2.5,11.2,5.6,11.2"/>
	</g>
	<path class="st1" d="M19.5,18.5c-0.4-2.7-2.7-4.8-5.5-4.8H7c-2.8,0-5.1,2.1-5.5,4.8H19.5z M7,12.2h6.9c3.9,0,7,3.2,7,7.1
		c0,0.4-0.3,0.7-0.7,0.7c0,0,0,0,0,0H0.7C0.3,20,0,19.7,0,19.3c0,0,0,0,0,0C0,15.4,3.2,12.2,7,12.2L7,12.2z"/>
</g>
</svg>
