<svg xmlns="http://www.w3.org/2000/svg" width="19" height="24" viewBox="0 0 19 24">
    <g fill="none" fill-rule="evenodd" stroke="#F40000" stroke-width="1.5">
        <path d="M11.822 1.903H16.3a2.4 2.4 0 0 1 2.4 2.4l-.001 16.95a2.4 2.4 0 0 1-2.4 2.4H2.9a2.4 2.4 0 0 1-2.4-2.4V4.303a2.4 2.4 0 0 1 2.4-2.4h4.605"/>
        <path d="M11.8 3.103a1.2 1.2 0 0 1-1.2 1.2H8.65a1.2 1.2 0 0 1-1.2-1.2V1.547a1.2 1.2 0 0 1 1.2-1.2h1.95a1.2 1.2 0 0 1 1.2 1.2v1.556zM5.75 13.052l3 3.15 4.9-4.849"/>
    </g>
</svg>
