<?xml version="1.0" encoding="utf-8"?>
<!-- Generator: Adobe Illustrator 21.0.0, SVG Export Plug-In . SVG Version: 6.00 Build 0)  -->
<svg version="1.1" id="Capa_1" xmlns="http://www.w3.org/2000/svg" xmlns:xlink="http://www.w3.org/1999/xlink" x="0px" y="0px"
	 viewBox="0 0 19 24" style="enable-background:new 0 0 19 24;" xml:space="preserve">
<style type="text/css">
	.st0{fill:none;stroke:#FFFFFF;stroke-width:1.5;}
</style>
<g>
	<path class="st0" d="M11.8,1.9h4.5c1.3,0,2.4,1.1,2.4,2.4l0,17c0,1.3-1.1,2.4-2.4,2.4H2.9c-1.3,0-2.4-1.1-2.4-2.4v-17
		c0-1.3,1.1-2.4,2.4-2.4l0,0h4.6"/>
	<path class="st0" d="M11.8,3.1c0,0.7-0.5,1.2-1.2,1.2h-2C8,4.3,7.4,3.8,7.4,3.1V1.5c0-0.7,0.5-1.2,1.2-1.2h1.9
		c0.7,0,1.2,0.5,1.2,1.2C11.8,1.5,11.8,3.1,11.8,3.1z M5.8,13.1l3,3.1l4.9-4.8"/>
</g>
</svg>
