<?xml version="1.0" encoding="utf-8"?>
<!-- Generator: Adobe Illustrator 21.0.0, SVG Export Plug-In . SVG Version: 6.00 Build 0)  -->
<svg version="1.1" id="Capa_1" xmlns="http://www.w3.org/2000/svg" xmlns:xlink="http://www.w3.org/1999/xlink" x="0px" y="0px"
	 viewBox="0 0 26 23" style="enable-background:new 0 0 26 23;" xml:space="preserve">
<style type="text/css">
	.st0{fill:#FFFFFF;}
</style>
<g>
	<path id="a" class="st0" d="M0,0h26v22.7H0V0z"/>
</g>
<g>
	<path class="st0" d="M18.9,16.8c0,0.3-0.2,0.5-0.5,0.5h-3.5c-0.3,0-0.5-0.2-0.5-0.5v-2.7c0-0.3,0.2-0.5,0.5-0.5h3.5
		c0.3,0,0.5,0.2,0.5,0.5V16.8L18.9,16.8z M18.5,12.4H15c-1,0-1.8,0.8-1.8,1.8v2.7c0,1,0.8,1.8,1.8,1.8h3.5c1,0,1.8-0.8,1.8-1.8v-2.7
		C20.2,13.1,19.4,12.4,18.5,12.4L18.5,12.4z"/>
	<path class="st0" d="M22.3,9.9c-1.2,0-2.2-0.8-2.4-2h4.8C24.5,9,23.4,9.9,22.3,9.9z M22.5,21.4H12v-6.9c0-1.2-1-2.2-2.2-2.2H7.9
		c-1.2,0-2.2,1-2.2,2.2v6.9H3.5V11.2c1.3,0.1,2.6-0.5,3.3-1.6c1.1,1.7,3.5,2.2,5.2,1c0.4-0.3,0.7-0.6,1-1c1.1,1.7,3.4,2.2,5.2,1
		c0.4-0.3,0.7-0.6,1-1c0.7,1,1.9,1.6,3.1,1.6c0.1,0,0.1,0,0.2,0L22.5,21.4L22.5,21.4z M10.7,21.4H7v-6.9c0-0.5,0.4-0.9,0.9-0.9h1.9
		c0.5,0,0.9,0.4,0.9,0.9V21.4L10.7,21.4z M1.3,7.9h4.8c-0.2,1.2-1.2,2-2.4,2S1.5,9,1.3,7.9z M12.3,7.9c-0.2,1.2-1.2,2-2.4,2
		s-2.2-0.8-2.4-2C7.5,7.9,12.3,7.9,12.3,7.9z M18.5,7.9c-0.2,1.2-1.2,2-2.4,2s-2.2-0.8-2.4-2C13.7,7.9,18.5,7.9,18.5,7.9z M4.9,1.3
		h16.2l3,5.3H1.9L4.9,1.3L4.9,1.3z M26,7.4c0-0.1,0-0.2-0.1-0.3L22,0.3C21.9,0.1,21.7,0,21.5,0h-17C4.3,0,4.1,0.1,3.9,0.3L0.1,7.1
		C0,7.2,0,7.3,0,7.4c0,1.5,0.9,2.8,2.2,3.4V22c0,0.4,0.3,0.6,0.6,0.6H23c0.4,0,0.6-0.3,0.6-0.6V10.9c0,0,0,0,0-0.1
		C25.1,10.3,26,8.9,26,7.4L26,7.4z"/>
</g>
</svg>
